<?xml version="1.0" standalone="no"?>
<!DOCTYPE svg PUBLIC "-//W3C//DTD SVG 20010904//EN"
 "http://www.w3.org/TR/2001/REC-SVG-20010904/DTD/svg10.dtd">
<svg version="1.0" xmlns="http://www.w3.org/2000/svg"
 width="788.000000pt" height="604.000000pt" viewBox="0 0 788.000000 604.000000"
 preserveAspectRatio="xMidYMid meet">
<metadata>
Created by potrace 1.15, written by Peter Selinger 2001-2017
</metadata>
<g transform="translate(0.000000,604.000000) scale(0.100000,-0.100000)"
fill="#000000" stroke="none">
<path d="M1208 6021 c-76 -15 -119 -31 -206 -76 -60 -31 -133 -76 -163 -101
-30 -24 -72 -56 -94 -70 -48 -32 -208 -196 -226 -233 -8 -14 -28 -47 -46 -74
-68 -101 -78 -144 -77 -322 1 -182 9 -221 62 -299 68 -101 145 -131 364 -143
l117 -6 73 35 c144 69 246 181 289 317 23 76 19 162 -9 187 -101 88 -148 110
-225 101 -56 -7 -89 -31 -85 -61 2 -15 20 -25 78 -42 59 -18 82 -31 108 -60
17 -21 32 -44 32 -51 0 -8 -24 -39 -52 -70 -56 -59 -171 -123 -223 -123 -61 0
-174 86 -223 169 -23 40 -27 57 -27 126 1 149 76 315 211 469 111 127 196 177
356 210 133 28 181 23 287 -29 156 -76 247 -195 287 -372 36 -161 -9 -432
-103 -618 -97 -192 -147 -262 -342 -479 -387 -431 -488 -582 -512 -766 -15
-114 10 -301 49 -360 l16 -25 6 30 5 30 24 -49 c39 -78 130 -168 219 -214 129
-67 155 -72 335 -73 167 0 304 19 407 56 126 45 290 179 413 338 33 42 61 76
62 75 2 -2 -12 -57 -30 -123 -19 -66 -46 -165 -60 -220 -64 -242 -100 -351
-137 -412 -22 -38 -68 -60 -258 -128 -255 -90 -402 -159 -563 -264 -43 -28
-94 -58 -115 -67 -60 -24 -214 -119 -397 -243 -155 -105 -185 -131 -342 -291
-95 -96 -180 -191 -189 -210 -10 -19 -37 -57 -61 -84 -42 -47 -121 -179 -191
-318 -31 -61 -35 -79 -42 -191 -4 -68 -5 -141 -1 -163 11 -57 86 -222 148
-325 29 -49 53 -92 53 -97 0 -15 90 -95 194 -172 115 -85 172 -106 321 -120
148 -15 284 4 410 57 179 75 323 187 465 364 92 115 145 202 195 324 40 95
151 434 180 545 9 36 34 119 55 185 22 66 53 176 69 245 16 69 43 159 60 200
16 41 36 104 45 140 26 113 106 391 121 420 8 16 28 35 45 43 28 14 30 14 30
-3 0 -25 23 -31 49 -14 13 9 21 11 21 4 0 -6 11 -3 26 6 19 13 52 18 134 20
60 1 113 5 118 8 5 3 106 10 223 17 118 6 241 15 274 20 153 26 531 -11 1041
-102 126 -22 278 -49 338 -60 240 -42 662 -45 693 -3 11 16 13 16 13 1 0 -22
57 -32 128 -22 32 5 77 8 102 8 80 -1 380 27 565 52 229 32 328 52 385 77 71
31 263 97 280 96 37 -3 60 4 94 27 23 16 58 27 94 31 31 4 75 17 97 29 22 12
94 44 160 70 66 26 127 53 135 60 8 7 26 16 40 20 29 9 187 86 245 121 22 13
61 49 87 81 25 32 67 79 92 106 49 50 62 99 30 111 -27 10 -68 -20 -134 -100
-68 -81 -152 -154 -176 -154 -8 0 -25 -7 -38 -15 -85 -56 -499 -163 -771 -200
-66 -9 -158 -23 -205 -31 -54 -9 -230 -18 -480 -24 -786 -21 -1023 -23 -1250
-11 -124 6 -508 14 -855 18 -673 6 -887 -1 -1090 -38 -106 -18 -333 -51 -443
-62 -57 -7 -76 8 -55 42 6 9 14 37 18 61 3 25 15 69 26 98 11 30 42 144 69
255 28 111 59 229 70 262 11 33 27 92 35 130 23 109 63 265 115 450 27 94 63
228 81 300 l32 129 -44 38 c-49 42 -92 53 -172 43 l-53 -7 -69 -171 c-176
-444 -385 -844 -502 -963 -29 -29 -79 -65 -117 -84 -63 -31 -70 -33 -151 -28
-105 7 -170 36 -250 111 -40 39 -55 60 -55 80 0 19 -5 27 -18 27 -27 0 -42 20
-42 56 0 22 -7 36 -22 47 -22 14 -23 20 -22 133 3 193 51 361 146 505 93 139
106 155 247 285 70 65 144 133 162 150 19 18 44 45 56 60 12 16 44 54 71 84
114 129 236 348 261 472 25 121 5 261 -53 376 -107 208 -266 332 -496 387
-113 27 -357 30 -482 6z m621 -183 c13 -10 29 -18 35 -18 6 0 31 -14 56 -31
75 -50 177 -211 201 -316 5 -26 14 -53 20 -59 18 -22 -2 -142 -33 -201 -16
-29 -37 -75 -47 -101 -11 -26 -35 -75 -55 -107 -38 -64 -249 -320 -270 -328
-7 -3 5 28 26 69 107 203 148 356 155 574 4 99 1 175 -6 209 -18 87 -68 200
-116 264 -25 32 -45 63 -45 68 0 14 51 -1 79 -23z m-1183 -346 c-52 -103 -69
-180 -64 -292 3 -83 7 -102 32 -144 16 -27 53 -74 82 -105 30 -30 54 -61 54
-68 0 -19 35 -31 114 -38 52 -5 65 -10 57 -18 -17 -17 -135 -13 -217 7 -66 16
-74 21 -119 74 -26 31 -59 80 -72 109 -46 100 -27 246 49 383 29 52 106 160
114 160 2 0 -11 -31 -30 -68z m2002 -1087 c41 -9 48 -24 28 -64 -9 -17 -25
-73 -35 -124 -21 -104 -72 -236 -101 -262 -11 -10 -20 -24 -20 -31 0 -24 -87
-199 -119 -239 -18 -21 -53 -75 -79 -119 -26 -43 -59 -91 -74 -107 -16 -15
-28 -30 -28 -34 0 -16 -80 -102 -149 -161 -119 -102 -113 -88 40 95 11 13 27
38 36 55 8 17 58 102 110 189 54 90 125 227 165 320 39 89 79 181 89 205 23
54 25 86 4 78 -19 -7 -19 5 0 30 8 11 15 14 15 7 0 -7 6 -13 14 -13 15 0 28
43 32 105 3 49 23 103 32 88 4 -6 22 -14 40 -18z m-1404 -371 c-29 -87 -54
-228 -54 -303 0 -217 117 -425 293 -526 90 -51 127 -65 181 -66 50 -1 94 -13
81 -21 -6 -3 -46 -11 -90 -18 -138 -21 -378 11 -482 63 -60 31 -144 121 -180
194 -21 45 -26 70 -30 176 -4 80 -2 136 6 158 6 19 43 91 81 159 57 100 84
136 143 191 39 37 73 66 74 65 0 0 -9 -33 -23 -72z m5671 -1284 c-3 -5 -15
-10 -27 -10 -12 0 -22 -8 -25 -20 -5 -17 -11 -19 -38 -14 -25 4 -41 1 -62 -15
-17 -12 -57 -25 -103 -31 -41 -6 -111 -22 -155 -35 -122 -36 -442 -92 -655
-115 -141 -16 -947 -16 -1060 0 -47 6 -184 31 -305 56 -251 51 -504 91 -650
101 l-100 8 70 6 c39 4 232 4 430 2 228 -4 380 -2 415 5 40 7 59 7 69 -1 9 -8
67 -12 172 -12 118 0 160 -3 164 -12 6 -17 43 -16 77 1 17 9 29 11 36 4 7 -7
69 -7 189 1 119 7 199 8 243 1 77 -12 331 -5 590 16 225 17 578 53 640 64 65
11 92 11 85 0z m-4965 -290 c-8 -6 -89 -49 -180 -95 -168 -85 -338 -183 -472
-271 -106 -70 -109 -72 -153 -95 -51 -27 -118 -96 -111 -114 3 -8 -8 -24 -24
-37 -17 -13 -51 -43 -77 -67 -27 -24 -59 -51 -73 -59 -14 -9 -29 -22 -33 -29
-23 -36 -142 -163 -154 -163 -14 0 -25 -17 -119 -175 -68 -113 -97 -181 -118
-275 -8 -36 -24 -108 -36 -161 -17 -72 -20 -110 -15 -155 4 -32 11 -124 15
-204 8 -131 24 -233 45 -284 7 -17 6 -17 -16 -6 -33 18 -156 138 -174 170 -34
59 -84 168 -91 194 -4 17 -18 46 -31 65 -16 23 -22 43 -18 56 4 11 10 58 15
105 10 96 31 183 60 248 25 55 164 264 238 356 88 109 273 310 293 318 11 4
56 32 102 61 45 30 103 67 128 83 25 16 78 51 117 77 39 26 117 72 173 102 56
30 109 61 118 68 26 23 180 112 269 156 45 23 91 50 101 60 10 10 49 26 87 35
38 10 83 23 99 31 36 16 56 19 35 5z m120 -64 c0 -24 -59 -183 -117 -315 -31
-69 -64 -155 -74 -191 -9 -36 -27 -83 -38 -105 -12 -21 -21 -53 -21 -69 0 -16
-7 -36 -15 -45 -9 -9 -73 -133 -144 -276 -189 -383 -313 -592 -470 -790 -146
-186 -238 -269 -366 -336 -97 -50 -150 -52 -217 -10 -47 30 -67 51 -49 51 18
0 12 26 -9 45 -11 10 -20 14 -21 9 -3 -28 -22 75 -29 161 -21 243 -22 272 -11
335 23 140 68 286 123 400 92 193 412 525 688 716 47 32 108 77 135 99 28 23
66 51 85 63 47 29 531 272 542 272 4 0 8 -6 8 -14z m72 -148 c-17 -67 -44
-161 -61 -206 -17 -46 -49 -152 -72 -235 -81 -303 -92 -342 -106 -362 -7 -11
-13 -30 -13 -42 0 -25 -93 -318 -164 -515 -52 -146 -81 -207 -125 -263 -17
-22 -58 -74 -90 -115 -125 -160 -189 -212 -266 -215 -30 -1 -61 -14 -113 -48
-40 -26 -72 -53 -72 -61 0 -8 -14 -19 -31 -25 -39 -14 -39 -14 -39 0 0 7 -7
17 -16 24 -14 10 -8 19 47 67 146 128 293 324 499 661 35 58 148 276 244 472
5 11 31 63 58 116 26 54 48 104 48 112 0 8 8 25 19 38 10 13 28 54 40 90 12
36 35 87 51 112 16 25 41 87 56 139 39 135 126 389 131 384 3 -2 -9 -60 -25
-128z"/>
<path d="M6504 4342 c-22 -14 -64 -85 -64 -108 0 -36 38 -56 91 -48 24 4 50
11 56 16 7 6 19 8 28 5 34 -14 58 50 35 92 -17 34 -117 63 -146 43z"/>
<path d="M3359 4064 c-149 -93 -178 -117 -286 -227 -162 -167 -198 -228 -224
-380 -16 -93 -6 -143 45 -227 60 -99 157 -147 277 -137 118 10 229 69 379 201
81 71 80 71 95 1 10 -46 110 -138 167 -154 119 -34 252 9 373 120 68 61 70 63
73 37 2 -14 17 -50 35 -79 43 -71 96 -99 186 -99 114 1 209 62 317 208 32 42
60 79 63 82 4 3 14 21 24 40 89 175 95 182 250 267 144 79 176 95 215 107 36
12 27 -26 -15 -65 -183 -170 -325 -344 -363 -446 -38 -102 -23 -170 53 -240
44 -40 50 -43 105 -43 115 0 198 49 261 154 29 49 32 60 23 81 -15 32 -28 31
-97 -5 -67 -36 -106 -38 -147 -9 -29 21 -30 24 -26 84 4 71 32 117 99 163 334
230 329 226 350 270 39 79 1 158 -87 182 -38 11 -61 11 -117 2 -69 -12 -192
-63 -246 -101 -16 -12 -31 -21 -34 -21 -3 0 -8 16 -12 36 -3 20 -10 44 -14 53
-40 85 -49 97 -86 118 -54 31 -151 32 -188 3 -33 -26 -57 -99 -57 -171 0 -75
39 -153 98 -192 l42 -29 -22 -41 c-33 -61 -155 -177 -225 -215 -82 -43 -139
-44 -186 -2 -50 44 -63 82 -48 138 6 25 54 124 106 221 93 173 100 191 86 241
-7 25 -7 25 -58 -23 l-51 -48 -14 28 c-27 56 -150 113 -246 113 -104 -1 -220
-73 -339 -214 -206 -241 -363 -387 -510 -475 -165 -98 -287 -90 -348 23 -26
48 -16 56 81 67 87 9 201 58 306 130 32 21 62 39 66 39 9 0 102 96 155 160 25
30 29 44 34 120 l6 87 -37 40 c-47 53 -91 73 -158 73 -47 0 -64 -6 -129 -46z
m199 -90 c24 -19 31 -29 23 -37 -6 -6 -11 -23 -11 -37 0 -40 -10 -42 -47 -10
-26 24 -43 30 -77 30 -45 0 -159 -31 -208 -56 -55 -28 -27 -3 56 51 157 102
195 111 264 59z m-99 -143 c27 -17 -21 -114 -67 -137 -13 -6 -35 -23 -50 -37
-40 -38 -127 -75 -222 -93 -46 -8 -93 -20 -103 -26 -52 -28 53 84 158 169 62
49 154 102 209 119 50 16 57 16 75 5z m814 -35 c23 -14 57 -39 75 -55 l34 -29
-21 -40 c-20 -40 -124 -140 -223 -215 -142 -107 -249 -107 -294 0 -23 54 -11
183 17 183 4 0 14 11 21 24 14 25 151 129 203 153 45 20 136 10 188 -21z
m-469 -443 c22 -24 53 -51 70 -60 34 -18 103 -14 181 11 l50 16 -30 -25 c-36
-30 -125 -65 -164 -65 -15 0 -50 7 -78 15 -39 12 -56 23 -71 48 -29 47 -44
104 -36 129 l7 22 16 -23 c9 -13 34 -43 55 -68z"/>
<path d="M6825 3981 c-59 -27 -122 -99 -283 -322 -50 -70 -115 -152 -143 -184
-92 -100 -243 -194 -292 -181 -30 7 -83 49 -98 78 -15 27 39 138 127 262 74
103 144 211 171 264 20 38 10 65 -26 70 -26 4 -127 -96 -169 -167 -15 -25 -56
-82 -91 -126 -85 -106 -158 -218 -171 -263 -5 -21 -10 -85 -10 -143 l0 -107
39 -35 c57 -52 80 -64 135 -71 84 -11 133 12 265 124 65 55 174 184 268 316
88 124 197 229 253 244 22 6 45 8 50 5 26 -16 7 -73 -65 -194 -82 -137 -170
-293 -185 -326 -9 -22 -25 -46 -34 -54 -9 -7 -16 -20 -16 -27 0 -16 70 -54 99
-54 33 0 127 39 146 60 17 19 46 115 81 265 9 39 32 103 51 143 29 63 44 80
111 133 97 77 150 102 197 93 20 -3 42 -16 50 -27 32 -45 9 -150 -54 -246 -78
-121 -122 -240 -95 -260 5 -3 14 -15 20 -26 18 -32 70 -57 122 -58 64 -2 123
37 160 106 15 27 32 59 39 71 6 11 15 33 18 49 7 25 5 27 -26 27 -19 0 -47 -9
-64 -20 -40 -26 -61 -25 -81 5 -21 32 -15 46 67 169 81 122 99 167 99 251 0
116 -63 169 -205 170 -78 0 -82 -1 -160 -47 l-80 -48 -30 35 c-16 19 -42 37
-58 41 -15 3 -30 10 -33 15 -9 15 -56 10 -99 -10z"/>
<path d="M7115 2691 c-32 -8 -145 -78 -158 -98 -4 -7 -14 -13 -21 -13 -8 0
-16 -7 -20 -15 -3 -8 -12 -15 -20 -15 -29 0 -306 -311 -306 -345 0 -4 -11 -16
-25 -27 -14 -10 -41 -44 -61 -74 -20 -30 -40 -54 -45 -54 -5 0 -9 -5 -9 -11 0
-6 -13 -29 -28 -52 -16 -23 -66 -112 -112 -197 -105 -195 -117 -211 -187 -251
-32 -18 -86 -52 -119 -76 -118 -83 -282 -135 -337 -107 -30 16 -117 127 -117
150 0 8 41 35 93 60 50 25 103 56 117 68 14 13 36 29 50 36 39 20 240 192 240
205 0 7 7 19 16 26 23 19 13 93 -17 126 -34 36 -117 73 -164 72 -53 -1 -128
-21 -132 -36 -2 -6 6 -21 19 -32 16 -16 30 -20 50 -15 33 7 132 -22 149 -43 9
-10 9 -20 1 -38 l-11 -24 -43 19 c-64 29 -115 26 -211 -15 -14 -6 -12 1 10 34
14 22 30 41 35 41 13 0 9 24 -6 45 -12 17 -17 18 -41 7 -73 -34 -255 -224
-276 -290 -6 -21 -17 -44 -24 -52 -7 -8 -13 -32 -13 -52 0 -47 -39 -104 -127
-187 -94 -87 -165 -132 -219 -138 -41 -5 -48 -3 -79 28 -39 39 -83 155 -73
194 7 29 126 127 224 184 37 21 91 64 120 94 65 70 68 99 16 157 -61 68 -78
61 -262 -107 l-79 -73 -6 55 c-12 119 -63 169 -176 169 -80 1 -168 -37 -203
-87 -12 -18 -41 -55 -63 -82 -22 -28 -63 -84 -90 -125 -96 -143 -305 -340
-394 -371 -44 -16 -90 4 -98 42 -3 15 -11 30 -19 33 -18 7 -18 37 1 111 18 72
90 225 105 225 5 0 10 4 10 10 0 5 15 31 33 57 43 60 50 82 36 99 -36 43 -99
1 -318 -212 -83 -81 -151 -145 -151 -143 -1 57 -24 178 -39 207 -41 80 -169
161 -296 187 -89 18 -247 35 -322 35 -32 0 -87 -9 -123 -20 -36 -11 -77 -20
-91 -20 -30 0 -75 -43 -85 -83 -3 -16 -13 -31 -20 -34 -8 -3 -14 -9 -14 -14 0
-4 -13 -27 -28 -51 -16 -24 -37 -65 -47 -93 -46 -125 -151 -370 -204 -475 -77
-149 -202 -434 -256 -581 -24 -64 -64 -160 -90 -215 -69 -145 -127 -285 -132
-319 -4 -27 0 -34 37 -58 52 -34 121 -50 176 -42 57 8 87 47 99 129 5 29 12
46 21 46 11 0 13 11 8 53 -7 69 42 255 108 403 10 22 18 54 18 70 1 37 34 113
55 120 8 3 15 14 15 24 0 11 5 22 10 25 6 4 27 38 46 77 20 39 42 77 49 85 7
7 15 18 17 24 5 14 180 28 211 16 58 -22 372 38 467 90 153 83 211 121 350
229 30 24 67 53 82 64 l28 21 -7 -95 c-7 -112 5 -167 49 -220 43 -53 82 -70
159 -70 83 0 142 28 258 121 46 37 94 74 107 81 13 7 24 19 24 27 0 16 98 150
175 240 29 33 56 68 61 77 12 21 136 115 169 128 21 8 30 5 59 -21 39 -34 61
-87 50 -121 -6 -21 -217 -231 -374 -373 -92 -84 -110 -118 -67 -134 97 -38
137 -45 174 -32 65 24 81 40 143 150 34 58 69 117 79 130 18 23 18 23 24 -68
9 -145 34 -177 189 -241 57 -23 59 -23 111 -7 100 32 235 142 318 260 29 41
50 64 53 56 2 -8 10 -31 16 -51 6 -20 18 -42 26 -48 7 -7 14 -18 14 -25 0 -22
50 -74 99 -103 41 -24 56 -27 141 -27 84 0 103 4 160 29 83 37 146 84 259 192
66 63 91 81 91 67 0 -34 76 -178 109 -206 17 -14 48 -29 69 -32 20 -3 58 -13
84 -21 45 -15 49 -14 117 10 77 28 168 74 219 111 106 77 371 351 451 467 20
28 41 53 47 55 7 2 14 -21 19 -64 4 -37 19 -104 33 -148 28 -89 34 -196 14
-255 -7 -21 -25 -42 -45 -54 -40 -23 -160 -33 -209 -17 -45 15 -68 6 -68 -28
0 -20 -2 -23 -10 -11 -5 8 -10 25 -10 38 0 18 -6 22 -30 22 -37 0 -54 -34 -44
-89 15 -83 72 -143 154 -160 104 -22 268 -9 287 23 5 7 22 20 38 29 38 19 117
102 140 147 13 26 16 50 13 102 -5 58 -15 88 -72 205 -56 117 -68 151 -77 223
-10 77 -9 90 10 144 25 71 17 96 -32 96 -49 0 -107 -42 -262 -191 -192 -185
-284 -253 -454 -340 -131 -65 -206 -59 -295 24 -26 25 -36 43 -36 65 0 37 15
49 165 128 59 32 137 79 171 106 35 26 66 48 70 48 13 0 98 73 203 175 116
111 370 416 373 446 0 10 1 25 2 32 1 6 10 17 21 23 15 8 20 20 19 52 -2 104
-123 165 -259 133z m160 -100 c13 -10 20 -22 16 -27 -4 -5 -14 -28 -21 -52 -7
-23 -19 -47 -27 -53 -7 -6 -13 -19 -13 -29 0 -10 -7 -20 -15 -24 -10 -4 -15 1
-15 15 0 12 -16 37 -35 56 -32 32 -40 35 -79 31 -47 -6 -101 -39 -203 -125
-34 -29 -66 -53 -70 -53 -4 0 46 54 112 120 74 74 127 120 140 120 11 0 26 9
33 20 17 28 142 29 177 1z m-165 -181 c0 -5 -9 -34 -21 -65 -29 -77 -191 -266
-317 -371 -91 -75 -90 -74 -100 -74 -5 0 -26 -15 -48 -34 -44 -38 -136 -98
-141 -92 -5 5 92 163 130 211 105 135 308 330 423 407 52 35 74 40 74 18z
m-4125 -565 c126 -47 151 -61 186 -96 40 -41 69 -119 69 -183 0 -59 -42 -121
-135 -198 -203 -167 -325 -209 -532 -179 -29 4 -55 10 -58 13 -9 9 26 82 56
116 16 18 29 37 29 43 0 6 9 22 20 36 11 14 20 35 20 47 0 22 36 101 70 151
11 17 23 37 26 45 30 70 79 161 95 176 10 9 19 25 19 34 0 37 27 36 135 -5z
m320 4 c87 -29 98 -35 125 -74 16 -24 35 -63 41 -88 11 -40 10 -50 -11 -103
-13 -33 -31 -70 -40 -84 -10 -14 -20 -36 -23 -51 -5 -18 -36 -44 -114 -96
-107 -69 -165 -103 -179 -103 -5 0 34 39 84 86 118 110 136 143 136 249 0 103
-34 184 -105 250 -59 55 -47 57 86 14z m2556 3 c-17 -32 -245 -192 -273 -192
-14 0 68 110 108 144 55 47 93 65 137 66 34 0 37 -2 28 -18z m-2054 -530 c10
-14 26 -29 34 -33 20 -10 81 -36 99 -41 27 -8 -60 -30 -93 -24 -18 4 -47 10
-66 13 -49 8 -66 53 -50 136 6 34 13 66 16 70 3 5 13 -14 23 -43 10 -29 26
-64 37 -78z m2538 68 c49 -39 122 -60 209 -60 58 0 83 6 136 30 l65 30 -35
-31 c-46 -39 -146 -87 -214 -101 -58 -13 -93 -4 -142 34 -26 21 -64 87 -64
113 0 20 1 20 45 -15z m-1413 -142 c29 -30 64 -35 148 -18 l45 8 -30 -24 c-16
-13 -54 -33 -83 -44 -48 -18 -56 -19 -88 -5 -88 37 -112 75 -99 157 l7 41 37
-44 c19 -24 48 -56 63 -71z m2528 57 c0 -59 -72 -138 -164 -181 -92 -43 -214
-27 -253 33 -20 30 -14 36 26 22 53 -19 218 -7 267 19 47 24 91 72 100 108 8
32 24 31 24 -1z m-5255 -578 c-57 -151 -107 -307 -149 -467 -19 -72 -40 -138
-46 -145 -12 -15 -46 -9 -53 10 -8 19 47 171 87 245 20 36 36 72 36 81 0 14
34 95 85 204 7 17 17 41 21 55 9 34 52 130 57 130 3 0 -14 -51 -38 -113z"/>
<path d="M4205 2251 c-39 -23 -57 -58 -51 -100 8 -56 31 -81 74 -81 46 0 75
19 107 71 30 47 31 68 4 103 -16 21 -29 26 -62 25 -23 0 -55 -8 -72 -18z"/>
</g>
</svg>
